<svg xmlns="http://www.w3.org/2000/svg" width="264" height="60" fill="none" viewBox="0 0 264 60"><path fill="url(#paint0_linear_2741_4520)" d="M25.8308 15.4545V33.8444L25.5416 33.5553L24.4429 32.4565L23.3441 31.3578C23.1802 31.1939 23.0453 30.8855 23.0357 30.6638L22.9007 28.0133L22.7272 24.5435C22.7176 24.3218 22.7658 23.9555 22.8333 23.7435L25.4452 15.8497L25.5705 15.4545C23.7104 15.4738 21.9176 15.7244 20.202 16.1871L20.0767 16.5726L19.508 18.2689L18.9394 19.9653C18.8719 20.1773 18.6502 20.2737 18.4478 20.1677L16.8479 19.3677L14.8817 18.3846C13.3106 19.3002 11.8552 20.399 10.5637 21.6713L10.9299 21.8544L14.2166 23.5025L17.5033 25.1507C17.7057 25.2471 17.8792 25.5169 17.8888 25.7386L17.9756 27.4446L18.0623 29.1506C18.0719 29.3723 17.8984 29.5458 17.6768 29.5361L15.8551 29.4397L14.2744 29.3626C14.0528 29.353 13.7829 29.1795 13.6865 28.9771L10.3902 22.4038L10.2071 22.0375C8.94446 23.329 7.83605 24.7844 6.93005 26.3555L7.11318 26.7217L7.91316 28.3121L8.71314 29.9024C8.80952 30.1048 8.71314 30.3265 8.51073 30.3939L6.81439 30.953L4.73251 31.6469C4.27951 33.3625 4.01928 35.1649 4 37.0155L4.38553 36.8902L12.2697 34.2685C12.4817 34.2011 12.8383 34.1529 13.0697 34.1625L17.1563 34.3746L19.1996 34.4806C19.4213 34.4902 19.7394 34.6348 19.8936 34.789L22.0911 36.9962C22.255 37.16 22.255 37.4203 22.0911 37.5745L20.9923 38.6732L19.8936 39.772C19.7297 39.9359 19.4213 40.0708 19.1996 40.0804L16.1346 40.2346L13.0697 40.3889C12.848 40.3985 12.4817 40.3503 12.2697 40.2828L8.2505 38.9431L4.38553 37.6805L4 37.5552C4.01928 39.4058 4.26987 41.2081 4.73251 42.9237L5.11804 43.049L6.81439 43.6081L8.51073 44.1671C8.72277 44.2345 8.81916 44.4562 8.71314 44.6586L6.93005 48.2152C7.84569 49.7862 8.94446 51.2416 10.2071 52.5331L10.3902 52.1669L12.2311 48.4947L13.6865 45.5936C13.7829 45.3911 14.0528 45.2177 14.2744 45.208L15.8551 45.1309L17.6768 45.0345C17.8984 45.0249 18.0719 45.1984 18.0623 45.4201L18.0045 46.5574L17.8888 48.8224C17.8792 49.0441 17.7057 49.3139 17.5033 49.4103L14.2166 51.0585L10.5637 52.8898C11.8552 54.1524 13.3106 55.2608 14.8817 56.1764L15.2479 55.9933L18.4382 54.3933C18.6406 54.297 18.8623 54.3933 18.9297 54.5957L19.4984 56.2921L20.0671 57.9884L20.1924 58.374C21.908 58.827 23.7104 59.0872 25.5609 59.1065L25.4356 58.7209L23.5369 53.0054L22.814 50.8272C22.7465 50.6151 22.6983 50.2585 22.708 50.0272L22.8429 47.3477L23.0164 43.9068C23.026 43.6852 23.1706 43.3671 23.3248 43.2129L25.5224 41.0154L25.8115 40.7262V59.1161C37.8787 59.1161 47.6519 49.3429 47.6519 37.2853C47.6519 25.2278 37.8883 15.4545 25.8308 15.4545ZM31.8354 53.1789C31.4596 53.3235 31.074 53.4488 31.074 53.4488C30.862 53.5162 30.6885 53.3909 30.6885 53.1596V21.4207C30.6885 21.199 30.862 21.064 31.074 21.1315C31.074 21.1315 31.5463 21.2857 31.9607 21.4399C38.3124 23.9073 42.8231 30.0759 42.8231 37.2757C42.8231 44.4755 38.2546 50.7308 31.8451 53.1596L31.8354 53.1789Z"/><path fill="#fff" d="M80.6954 34.0363H80.239C78.9562 31.927 76.6002 29.9041 72.1473 29.9041C66.4486 29.9041 61.6626 34.542 61.6626 41.8566C61.6626 49.1712 66.4486 53.7598 72.1473 53.7598C76.6125 53.7598 78.9562 51.7369 80.3377 49.5289H80.7941V53.1184H85.025V20.9243H80.7077V34.0239L80.6954 34.0363ZM73.3438 49.9976C69.0636 49.9976 66.0292 46.9633 66.0292 41.8566C66.0292 36.75 69.0636 33.6662 73.3438 33.6662C77.624 33.6662 80.7447 36.75 80.7447 41.8566C80.7447 46.9633 77.6117 49.9976 73.3438 49.9976Z"/><path fill="#fff" d="M101.458 29.8919C94.884 29.8919 90.1474 34.8998 90.1474 41.6594C90.1474 48.4189 94.884 53.7476 101.779 53.7476C107.799 53.7476 110.426 50.5282 111.943 47.8145L108.304 45.8409C107.293 47.9995 105.406 49.9854 101.73 49.9854C97.5853 49.9854 94.884 47.1854 94.6496 43.1766H112.35V41.1043C112.35 34.2584 107.885 29.8795 101.458 29.8795V29.8919ZM94.6496 39.6858C95.069 36.0593 97.5483 33.6663 101.458 33.6663C105.369 33.6663 107.663 35.9236 107.897 39.6858H94.6496Z"/><path fill="#fff" d="M125.866 25.8459C125.866 24.9208 126.322 24.4644 127.149 24.4644H139.138V20.9243H125.718C123.189 20.9243 121.536 22.5278 121.536 25.1551V30.5332H114.962V34.0733H121.536V53.106H125.853V34.0733H132.564V30.5332H125.853V25.8459H125.866Z"/><path fill="#fff" d="M141.302 30.532H136.985V53.1048H141.302V30.532Z"/><path fill="#fff" d="M157.999 49.947C153.817 49.947 150.598 46.7276 150.598 41.8553C150.598 36.983 153.768 33.7143 157.999 33.7143C161.416 33.7143 163.636 35.6262 164.364 38.3275H168.755C167.805 33.6033 163.969 29.9028 157.949 29.9028C151.424 29.9028 146.219 34.8244 146.219 41.8553C146.219 48.8862 151.412 53.7585 157.949 53.7585C164.142 53.7585 167.817 50.058 168.927 45.1981H164.512C163.685 48.0104 161.625 49.947 157.999 49.947Z"/><path fill="#fff" d="M186.149 30.1261C181.683 30.1261 179.624 32.0997 178.612 33.9869H178.156V20.9243H173.838V53.106H178.156V41.6099C178.156 36.4539 180.869 33.7032 184.915 33.7032C188.554 33.7032 190.75 35.5905 190.75 39.7227V53.106H195.03V39.5006C195.03 33.6169 191.218 30.1261 186.161 30.1261H186.149Z"/><path fill="#fff" d="M216.181 39.178L208.176 40.3251C203.538 40.9665 199.899 42.8538 199.899 47.134C199.899 51.4142 203.39 53.7578 208.09 53.7578C212.789 53.7578 214.8 51.5499 215.861 49.8477H216.268V53.1164H220.449V38.9313H216.169V39.1903L216.181 39.178ZM216.181 43.3595C216.181 47.7754 213.147 50.3534 208.867 50.3534C205.882 50.3534 204.217 49.0212 204.217 46.949C204.217 44.8767 206.005 43.8653 208.632 43.4582L216.169 42.3974V43.3595H216.181Z"/><path fill="#fff" d="M220.466 30.532H216.186V38.9197H220.466V30.532Z"/><path fill="#fff" d="M218.921 30.532H201.676V34.0844H218.921V30.532Z"/><path fill="#fff" d="M230.975 30.532H226.658V53.1048H230.975V30.532Z"/><path fill="#fff" d="M249.676 30.1238C245.211 30.1238 243.052 32.1467 242.041 34.1696H241.584V30.5308H237.353V53.1037H241.671V41.6076C241.671 36.4516 244.384 33.7009 248.43 33.7009C252.069 33.7009 254.265 35.5881 254.265 39.7203V53.1037H258.545V39.4983C258.545 33.6145 254.733 30.1238 249.676 30.1238Z"/><path fill="#fff" d="M108.305 45.8513H112.35C112.35 45.8513 112.449 46.9738 111.943 47.8249C111.438 48.676 108.305 45.8513 108.305 45.8513Z"/><path fill="#fff" d="M201.847 20.2727V18.7617H203.187V11.8055H201.847V10.2945H206.95C207.549 10.2945 208.072 10.3991 208.518 10.6081C208.974 10.8077 209.326 11.0975 209.573 11.4777C209.83 11.8483 209.958 12.2949 209.958 12.8176V12.9459C209.958 13.402 209.873 13.7774 209.701 14.072C209.53 14.3666 209.326 14.5947 209.089 14.7562C208.851 14.9178 208.623 15.0318 208.404 15.0983V15.3406C208.623 15.3977 208.856 15.507 209.103 15.6685C209.359 15.8206 209.573 16.0486 209.744 16.3527C209.925 16.6473 210.015 17.0322 210.015 17.5073V17.6499C210.015 18.1916 209.882 18.662 209.616 19.0611C209.359 19.4507 209.003 19.7501 208.547 19.9591C208.1 20.1682 207.582 20.2727 206.993 20.2727H201.847ZM204.898 18.719H206.794C207.25 18.719 207.611 18.6097 207.877 18.3911C208.152 18.163 208.29 17.8447 208.29 17.4361V17.3078C208.29 16.8991 208.157 16.5855 207.891 16.367C207.625 16.1389 207.259 16.0249 206.794 16.0249H204.898V18.719ZM204.898 14.4711H206.779C207.216 14.4711 207.568 14.3618 207.834 14.1433C208.11 13.9247 208.247 13.6206 208.247 13.231V13.0884C208.247 12.6988 208.11 12.3947 207.834 12.1761C207.568 11.9576 207.216 11.8483 206.779 11.8483H204.898V14.4711ZM212.34 20.2727V10.2945H216.602C217.229 10.2945 217.775 10.4038 218.241 10.6224C218.707 10.841 219.068 11.1498 219.324 11.5489C219.591 11.9386 219.724 12.409 219.724 12.9601V13.1169C219.724 13.7346 219.576 14.2288 219.282 14.5994C218.987 14.97 218.631 15.2409 218.213 15.4119V15.64C218.583 15.659 218.873 15.7873 219.082 16.0249C219.301 16.2624 219.41 16.5808 219.41 16.9799V20.2727H217.699V17.2222C217.699 16.9847 217.633 16.7946 217.5 16.6521C217.376 16.5 217.172 16.424 216.887 16.424H214.065V20.2727H212.34ZM214.065 14.8702H216.431C216.925 14.8702 217.31 14.742 217.585 14.4854C217.871 14.2193 218.013 13.8677 218.013 13.4305V13.3022C218.013 12.8556 217.875 12.504 217.6 12.2474C217.324 11.9813 216.934 11.8483 216.431 11.8483H214.065V14.8702ZM222.059 20.2727V10.2945H223.784V20.2727H222.059ZM226.133 20.2727V18.7617H227.473V11.8055H226.133V10.2945H230.195C231.526 10.2945 232.543 10.6319 233.246 11.3066C233.949 11.9813 234.301 12.9934 234.301 14.3428V16.2244C234.301 17.5739 233.949 18.5859 233.246 19.2606C232.543 19.9354 231.526 20.2727 230.195 20.2727H226.133ZM229.183 18.719H230.21C231.017 18.719 231.616 18.5099 232.006 18.0918C232.395 17.6736 232.59 17.0702 232.59 16.2814V14.3001C232.59 13.4923 232.395 12.8841 232.006 12.4755C231.616 12.0573 231.017 11.8483 230.21 11.8483H229.183V18.719ZM240.117 20.4723C239.414 20.4723 238.782 20.3202 238.221 20.0161C237.67 19.7025 237.228 19.2511 236.896 18.662C236.572 18.0633 236.411 17.3315 236.411 16.4668V14.1005C236.411 12.8081 236.772 11.8198 237.494 11.1356C238.216 10.4418 239.186 10.095 240.402 10.095C241.619 10.095 242.555 10.4228 243.21 11.0785C243.866 11.7247 244.194 12.599 244.194 13.7014V13.7584H242.512V13.6444C242.512 13.2642 242.436 12.9221 242.284 12.618C242.132 12.3139 241.899 12.0764 241.585 11.9053C241.272 11.7247 240.877 11.6345 240.402 11.6345C239.699 11.6345 239.143 11.853 238.734 12.2902C238.335 12.7178 238.136 13.3117 238.136 14.072V16.4953C238.136 17.246 238.335 17.8447 238.734 18.2913C239.143 18.738 239.708 18.9613 240.431 18.9613C241.153 18.9613 241.68 18.7665 242.013 18.3769C242.346 17.9872 242.512 17.4883 242.512 16.8801V16.7091H239.989V15.2551H244.194V20.2727H242.626V19.2892H242.384C242.308 19.4602 242.189 19.6408 242.027 19.8308C241.866 20.0114 241.633 20.1634 241.329 20.287C241.034 20.4105 240.63 20.4723 240.117 20.4723ZM246.79 20.2727V10.2945H253.148V11.8483H248.515V14.4711H252.749V16.0249H248.515V18.719H253.219V20.2727H246.79Z"/><defs><linearGradient id="paint0_linear_2741_4520" x1="4" x2="47.671" y1="37.285" y2="37.285" gradientUnits="userSpaceOnUse"><stop stop-color="#F0F"/><stop offset="1" stop-color="#EC0C8D"/></linearGradient></defs></svg>