<svg xmlns="http://www.w3.org/2000/svg" width="263" height="52" fill="none" viewBox="0 0 263 52"><path fill="#FF00AF" d="M31.3472 45.3404V6.94731C39.5435 9.39182 45.5828 17.0129 45.5828 26.072C45.5828 35.131 39.5435 42.7521 31.3472 45.3404ZM25.5954 0.476562V22.0457L22.2881 18.7385L21.8568 10.5422L25.3078 0.476562C23.1509 0.476562 20.994 0.764151 18.9809 1.33933L17.3991 6.22834L12.7977 3.92763C10.9284 5.07798 9.20284 6.22834 7.62111 7.81008L16.2488 12.1239L16.5364 17.0129L11.6474 16.7253L7.33352 8.09767C5.89557 9.67941 4.60142 11.2611 3.45107 13.1305L5.75178 17.7319L0.862767 19.3136C0.287589 21.3268 0 23.4837 0 25.6406L10.2094 22.1895L18.4057 22.6209L21.713 25.9282L18.4057 29.2354L10.2094 29.6668L0 26.3596C0 28.5165 0.287589 30.6734 0.862767 32.6865L5.75178 34.2683L3.45107 38.8697C4.45763 40.739 5.75178 42.4645 7.33352 43.9025L11.6474 35.2748L16.5364 34.9872L16.2488 39.8762L7.62111 44.1901C9.20284 45.628 10.7846 46.9222 12.6539 48.0725L17.2553 45.7718L18.8371 50.6608C20.8502 51.236 23.0071 51.5236 25.164 51.5236L21.713 41.3142L22.1443 33.1179L25.4516 29.8106V51.5236C39.6873 51.5236 51.1908 40.02 51.1908 25.7844C51.1908 11.5487 39.8311 0.476562 25.5954 0.476562Z"/><path fill="#fff" fill-rule="evenodd" d="M249.196 3.20867C249.483 2.92108 249.771 2.77728 250.058 2.63349C250.346 2.48969 250.777 2.48969 251.209 2.48969C251.64 2.48969 252.072 2.63349 252.359 2.77728C252.647 2.92108 253.078 3.20867 253.366 3.49625L254.66 2.3459C254.228 1.91452 253.797 1.48313 253.222 1.19554C252.647 0.907955 251.928 0.76416 251.209 0.76416C250.49 0.76416 249.915 0.907955 249.339 1.05175C248.917 1.15725 248.573 1.41758 248.249 1.66234L248.249 1.66236C248.131 1.75118 248.016 1.83794 247.902 1.91452C247.47 2.3459 247.183 2.77728 246.895 3.35246C246.607 3.92764 246.607 4.50282 246.607 5.07799C246.607 5.65317 246.751 6.22835 246.895 6.80353C247.183 7.3787 247.47 7.81009 247.902 8.24147C248.333 8.67285 248.764 8.96044 249.339 9.10424C249.915 9.24803 250.49 9.39183 251.209 9.39183C251.685 9.39183 252.162 9.29314 252.72 9.17752C252.836 9.15358 252.955 9.12891 253.078 9.10424C253.653 8.96044 254.228 8.67285 254.66 8.24147V5.07799H252.934V7.5225C252.862 7.5225 252.791 7.55845 252.719 7.5944C252.647 7.63034 252.575 7.66629 252.503 7.66629C252.072 7.81009 251.784 7.81009 251.353 7.81009C250.921 7.81009 250.634 7.81009 250.202 7.66629C249.915 7.5225 249.627 7.3787 249.339 7.09111C249.052 6.80353 248.908 6.51594 248.764 6.22835C248.621 5.94076 248.62 5.50938 248.62 5.22179C248.62 4.7904 248.621 4.50282 248.764 4.07143C248.791 3.99226 248.812 3.92278 248.832 3.86032L248.832 3.86023C248.918 3.5824 248.961 3.44345 249.196 3.20867ZM222.45 5.07801C222.389 5.07801 222.354 5.07801 222.322 5.06697C222.28 5.05204 222.245 5.0169 222.162 4.93421C222.45 4.79045 222.737 4.50295 223.025 4.21542L223.025 4.21524C223.313 3.92765 223.313 3.49627 223.313 3.06488C223.313 2.34591 223.025 1.91453 222.45 1.48315C221.875 1.05176 221.156 0.907969 220.005 0.907969H215.835V9.24805H220.149C221.3 9.24805 222.162 9.10425 222.594 8.67287C223.169 8.24148 223.456 7.66631 223.456 6.94733C223.456 6.51595 223.313 6.08457 223.169 5.65318C223.169 5.50939 222.881 5.2218 222.45 5.07801ZM219.862 2.48971C220.293 2.48971 220.724 2.6335 221.012 2.7773C221.3 2.7773 221.3 3.06489 221.3 3.35247C221.3 3.64006 221.156 3.92765 220.868 4.07145C220.581 4.21524 220.293 4.35903 219.718 4.35903H217.848V2.48971H219.862ZM221.443 7.66631C221.156 7.8101 220.868 7.9539 220.293 7.9539H217.992V5.79698H220.293C220.724 5.79698 221.156 5.94077 221.443 6.08457C221.731 6.22836 221.875 6.51595 221.875 6.94733L221.875 6.94751C221.731 7.23504 221.587 7.52254 221.443 7.66631ZM130.278 9.10424C127.689 9.10424 125.676 9.82322 124.238 11.2612C122.8 12.6991 122.081 14.5684 122.081 17.0129V19.1699H117.911V22.7647H122.081V43.6149H126.539V22.9085H133.585V19.1699H126.395V17.0129C126.395 15.575 126.683 14.5684 127.402 13.8495C128.121 13.1305 129.127 12.6991 130.422 12.6991C130.997 12.6991 131.716 12.8429 132.291 12.9867C132.866 13.1305 133.441 13.4181 133.873 13.8495L135.311 10.5422C134.735 10.1108 134.016 9.67942 133.01 9.39183C132.147 9.24804 131.284 9.10424 130.278 9.10424ZM83.1131 22.9085C82.2504 21.9019 81.2438 20.8954 80.0934 20.3202C78.3679 19.4574 76.4986 18.8823 74.4855 18.8823C72.041 18.8823 70.0278 19.4574 68.1585 20.464C66.2892 21.4706 64.8512 22.9085 63.7009 24.7778C62.5505 26.6472 62.1191 28.8041 62.1191 31.3924C62.1191 33.8369 62.6943 36.1376 63.7009 38.0069C64.8512 39.8762 66.2892 41.3142 68.1585 42.4645C70.0278 43.4711 72.1848 44.0463 74.4855 44.0463C76.6424 44.0463 78.5117 43.6149 80.2372 42.6083C81.3876 41.8894 82.3942 41.0266 83.2569 39.8762V43.7587H87.5708V9.39182H83.1131V22.9085ZM82.1066 35.9938C81.3876 37.2879 80.381 38.2945 79.0869 39.0135C77.7927 39.7324 76.4986 40.02 74.9168 40.02C73.3351 40.02 71.8972 39.7324 70.7468 39.0135C69.4527 38.2945 68.5899 37.2879 67.7271 35.9938C67.0082 34.6996 66.5768 33.1179 66.5768 31.3924C66.5768 29.6668 67.0082 28.0851 67.7271 26.7909C68.4461 25.4968 69.4527 24.4902 70.7468 23.7713C72.041 23.0523 73.3351 22.7647 74.9168 22.7647C76.4986 22.7647 77.7927 23.0523 79.0869 23.7713C80.381 24.4902 81.3876 25.4968 82.1066 26.7909C82.8255 28.0851 83.2569 29.523 83.2569 31.3924C83.2569 33.2617 82.8255 34.6996 82.1066 35.9938ZM111.009 20.6078C109.14 19.6012 107.127 19.026 104.682 19.026C102.382 19.026 100.225 19.6012 98.3553 20.6078C96.486 21.6143 95.0481 23.1961 93.8977 25.0654C92.8912 26.9347 92.316 29.0917 92.316 31.5362C92.316 33.9807 92.8912 36.1376 93.8977 38.0069C95.0481 39.8762 96.486 41.3142 98.4991 42.4645C100.512 43.6149 102.813 44.0463 105.401 44.0463C107.414 44.0463 109.284 43.7587 110.865 43.0397C112.447 42.3207 113.885 41.3142 115.035 40.02L112.591 37.1441C111.728 38.1507 110.722 38.8697 109.428 39.3011C108.277 39.7324 106.983 40.02 105.401 40.02C103.676 40.02 102.094 39.7324 100.8 39.0135C99.5057 38.2945 98.3553 37.2879 97.6364 35.9938C97.0612 34.9872 96.7736 33.9807 96.6298 32.8303H116.473V32.1113V31.3924C116.473 28.8041 115.898 26.6472 114.892 24.7778C114.317 23.0523 112.879 21.6143 111.009 20.6078ZM100.656 23.7713C101.806 23.0523 103.244 22.7647 104.826 22.7647C106.408 22.7647 107.846 23.0523 108.996 23.7713C110.146 24.4902 111.153 25.4968 111.728 26.6472C112.303 27.6537 112.591 28.6603 112.591 29.8106H96.7736C96.9174 28.6603 97.205 27.6537 97.7802 26.7909C98.4991 25.4968 99.3619 24.4902 100.656 23.7713ZM137.899 19.1699H142.356V43.6149H137.899V19.1699ZM160.187 22.9085C158.605 22.9085 157.167 23.1961 155.873 23.9151C154.579 24.634 153.572 25.6406 152.853 26.9347C152.134 28.2289 151.703 29.8106 151.703 31.5362C151.703 33.2617 152.134 34.8434 152.853 36.1376C153.572 37.4317 154.579 38.4383 155.873 39.1573C157.167 39.8762 158.605 40.1638 160.187 40.1638C161.481 40.1638 162.775 39.8762 163.926 39.3011C165.076 38.8697 165.939 37.8631 166.801 36.7128L170.109 38.8697C169.102 40.5952 167.808 41.8894 166.082 42.7521C164.357 43.6149 162.344 44.0463 160.187 44.0463C157.742 44.0463 155.586 43.6149 153.572 42.4645C151.559 41.3142 150.121 39.8762 148.971 38.0069C147.821 36.1376 147.245 33.9807 147.245 31.5362C147.245 29.0917 147.821 26.9347 148.971 25.0654C150.121 23.1961 151.559 21.6143 153.572 20.6078C155.442 19.6012 157.742 19.026 160.187 19.026C162.344 19.026 164.357 19.4574 166.082 20.3202C167.808 21.183 169.102 22.4771 170.109 24.2026L166.801 26.3596C166.082 25.2092 165.076 24.3464 163.926 23.7713C162.775 23.1961 161.481 22.9085 160.187 22.9085ZM192.397 20.1764C190.815 19.4574 189.09 19.0261 187.076 19.0261C184.92 19.0261 182.906 19.4574 181.181 20.3202C180.031 20.8954 179.168 21.7581 178.305 22.7647V9.39182H173.847V43.7587H178.305V31.1048C178.305 29.3792 178.593 27.7975 179.312 26.6472C179.887 25.4968 180.893 24.4902 182.044 23.9151C183.194 23.3399 184.632 23.0523 186.214 23.0523C188.371 23.0523 189.952 23.6275 191.103 24.9216C192.253 26.072 192.828 27.9413 192.828 30.242V43.9025H197.286V29.8106C197.286 27.3661 196.855 25.353 195.992 23.9151C194.985 22.0457 193.835 20.8954 192.397 20.1764ZM206.776 19.8888C208.646 19.3136 210.371 19.026 212.384 19.026C215.835 19.026 218.424 19.745 219.862 21.4706C221.731 23.0523 222.594 25.6406 222.594 28.9479V43.7587H218.424V40.4514C217.849 41.458 216.986 42.177 215.979 42.7521C214.541 43.6149 212.672 44.0463 210.371 44.0463C208.646 44.0463 207.064 43.7587 205.626 43.1835C204.188 42.6083 203.181 41.7456 202.463 40.5952C201.744 39.4449 201.312 38.2945 201.312 36.8566C201.312 35.5624 201.744 34.4121 202.319 33.2617C203.038 32.2551 204.044 31.3924 205.482 30.6734C206.92 29.9544 208.789 29.6668 211.234 29.6668H218.28V28.8041C218.28 26.9347 217.849 25.4968 216.698 24.4902C215.692 23.4837 213.966 22.9085 211.809 22.9085C210.371 22.9085 208.933 23.1961 207.495 23.6275C206.201 24.0589 205.051 24.634 204.044 25.4968L202.175 22.1895C203.469 21.183 205.051 20.464 206.776 19.8888ZM211.522 40.5952C213.103 40.5952 214.541 40.1638 215.835 39.4449C216.986 38.7259 217.849 37.5755 218.568 36.1376V32.6865H211.665C209.508 32.6865 207.927 33.1179 207.208 33.8369C206.489 34.5558 206.057 35.5624 206.057 36.569C206.057 37.7193 206.489 38.7259 207.495 39.4449C208.502 40.1638 209.796 40.5952 211.522 40.5952ZM233.522 19.1699H229.064V43.6149H233.522V19.1699ZM258.111 20.1764C259.693 20.8954 260.843 22.0457 261.706 23.6275C262.569 25.2092 263 27.2223 263 29.6668V43.7587H258.542V30.0982C258.542 27.7975 257.967 25.9282 256.817 24.7778C255.666 23.4837 254.085 22.9085 251.928 22.9085C250.346 22.9085 248.908 23.1961 247.758 23.7713C246.607 24.3464 245.601 25.353 245.026 26.5034C244.307 27.6537 244.019 29.2355 244.019 30.961V43.6149H239.561V19.1698H243.875V22.9085C244.594 21.9019 245.601 21.0392 246.895 20.3202C248.621 19.4574 250.634 19.026 252.791 19.026C254.804 19.026 256.529 19.4574 258.111 20.1764ZM231.797 5.6532C231.509 6.08458 231.078 6.37217 230.502 6.65976L232.516 9.39185H230.359L228.777 7.09114H228.633H226.908V9.39185H224.894V1.05178H228.489C229.115 1.05178 229.589 1.20297 230.022 1.34092L230.022 1.34095C230.186 1.39325 230.344 1.44363 230.502 1.48316C231.078 1.62695 231.509 2.05834 231.797 2.48972C232.084 2.9211 232.228 3.49628 232.228 4.07146C232.228 4.64664 232.084 5.22182 231.797 5.6532ZM230.359 3.92767C230.359 3.49628 230.215 3.20869 229.927 2.9211C229.496 2.63352 229.064 2.48972 228.633 2.63352H227.051V5.5094H228.633C229.208 5.5094 229.64 5.36561 229.927 5.07802C230.215 4.79043 230.359 4.35905 230.359 3.92767ZM235.535 0.907969H233.522V9.24805H235.535V0.907969ZM240.856 0.907969C241.862 0.907969 242.581 1.19556 243.3 1.48315C244.019 1.77074 244.594 2.34591 245.026 2.92109C245.457 3.49627 245.601 4.21524 245.601 5.07801C245.601 5.79698 245.457 6.65975 245.026 7.23492C244.738 7.8101 244.163 8.38528 243.444 8.67287C242.725 9.10425 241.862 9.24805 240.999 9.24805H237.117V0.907969H240.856ZM242.15 7.37872C242.581 7.23492 242.869 6.94733 243.156 6.51595C243.444 6.22836 243.588 5.65318 243.444 5.07801C243.444 4.50283 243.444 4.07145 243.156 3.64006C243.087 3.57038 243.017 3.49226 242.945 3.41183L242.945 3.41166L242.945 3.41147C242.721 3.16005 242.476 2.8862 242.15 2.7773C241.718 2.6335 241.287 2.48971 240.712 2.48971H238.986V7.66631H240.712C241.287 7.66631 241.718 7.52251 242.15 7.37872ZM257.68 5.94077V7.8101H262.281V9.39184H255.81V0.907969H262.137V2.48971H257.68V4.35904H261.562V5.94077H257.68Z" clip-rule="evenodd"/></svg>