<svg width="24" height="24" viewBox="0 0 24 24" fill="none" xmlns="http://www.w3.org/2000/svg">
<g clip-path="url(#clip0_784_104951)">
<path d="M12 24C18.6274 24 24 18.6274 24 12C24 5.37258 18.6274 0 12 0C5.37258 0 0 5.37258 0 12C0 18.6274 5.37258 24 12 24Z" fill="#F5F5F5"/>
<path d="M17.625 13.212L11.9985 20.9963V16.476L17.625 13.212ZM11.9985 9.654V15.4298L6.375 12.165L11.9985 9.654ZM11.9985 3L17.6213 12.165L11.9985 9.6525V3Z" fill="white"/>
<path d="M17.625 13.212L11.9985 20.9963V16.476L17.625 13.212ZM11.9985 9.654V15.4298L6.375 12.165L11.9985 9.654ZM11.9985 3L17.6213 12.165L11.9985 9.6525V3Z" fill="#627EEA" fill-opacity="0.8"/>
<path d="M6.375 13.212L11.9985 16.4752V20.9963L6.375 13.212ZM11.9985 3V9.6525L6.375 12.165L11.9985 3Z" fill="white"/>
<path d="M6.375 13.212L11.9985 16.4752V20.9963L6.375 13.212ZM11.9985 3V9.6525L6.375 12.165L11.9985 3Z" fill="#627EEA" fill-opacity="0.6"/>
<path d="M11.9985 15.4296L17.6213 12.1648L11.9985 9.65381V15.4296Z" fill="#627EEA"/>
</g>
<defs>
<clipPath id="clip0_784_104951">
<rect width="24" height="24" fill="white"/>
</clipPath>
</defs>
</svg>
