<svg width="265" height="60" viewBox="0 0 265 60" fill="none" xmlns="http://www.w3.org/2000/svg">
<path d="M25.014 5.16504V26.45L21.714 23.183L21.252 15.527L24.024 5.16504C21.978 5.26404 19.998 5.59404 18.084 6.15504L16.83 10.808L12.474 8.53104C11.583 9.05904 10.758 9.62004 9.933 10.214C9.108 10.808 8.349 11.501 7.623 12.194L15.84 16.451L16.137 21.335L11.187 21.071L6.93 12.887C5.511 14.372 4.29 16.022 3.267 17.804L5.478 22.094L0.858 23.579C0.33 25.559 0.033 27.605 0 29.684L9.702 26.516L17.721 26.945L20.988 30.179L17.721 33.413L9.702 33.875L0 30.707C0.033 32.819 0.33 34.832 0.858 36.779L5.478 38.264L3.267 42.554C4.29 44.336 5.511 45.986 6.93 47.471L11.154 39.287L16.104 39.023L15.807 43.907L7.59 48.164C9.042 49.583 10.692 50.804 12.441 51.86L16.797 49.583L18.051 54.269C19.965 54.83 21.945 55.127 24.024 55.226L21.252 44.897L21.714 37.241L25.014 33.974V55.259C38.841 55.259 50.061 44.039 50.061 30.212C50.061 16.385 38.841 5.16504 25.014 5.16504ZM44.55 30.212C44.55 39.089 38.643 46.58 30.525 48.956V11.468C38.643 13.844 44.55 21.335 44.55 30.212Z" fill="#FF00AF"/>
<path fill-rule="evenodd" clip-rule="evenodd" d="M252.219 14.042C251.79 14.207 251.361 14.306 250.932 14.306C250.239 14.306 249.645 14.174 249.083 13.943C248.555 13.712 248.093 13.382 247.697 12.953C247.335 12.524 247.038 12.062 246.84 11.501C246.642 10.94 246.542 10.346 246.542 9.686C246.542 9.026 246.642 8.399 246.84 7.838C247.038 7.277 247.335 6.782 247.697 6.353C248.061 5.924 248.523 5.594 249.083 5.363C249.645 5.132 250.239 5 250.932 5C251.394 5 251.823 5.066 252.252 5.198C252.681 5.33 253.077 5.528 253.407 5.792C253.737 6.056 254.034 6.386 254.265 6.782C254.495 7.178 254.628 7.607 254.661 8.135H252.78C252.648 7.64 252.45 7.277 252.12 7.013C251.79 6.749 251.393 6.65 250.898 6.65C250.469 6.65 250.074 6.749 249.777 6.914C249.48 7.079 249.215 7.31 249.018 7.607C248.819 7.904 248.688 8.234 248.589 8.597C248.49 8.96 248.457 9.356 248.457 9.719C248.457 10.082 248.49 10.445 248.589 10.808C248.688 11.171 248.819 11.468 249.018 11.765C249.215 12.062 249.447 12.26 249.777 12.458C250.074 12.623 250.469 12.722 250.898 12.722C251.559 12.722 252.053 12.557 252.383 12.227C252.747 11.897 252.945 11.435 253.011 10.808H251.031V9.356H254.76V14.174H253.506L253.307 13.151C253.044 13.547 252.648 13.844 252.219 14.042ZM219.945 5.19801C220.374 5.19801 220.77 5.23101 221.1 5.29701C221.463 5.36301 221.76 5.49501 221.991 5.66001C222.255 5.82501 222.42 6.05601 222.585 6.35301C222.717 6.65001 222.783 6.98001 222.783 7.40901C222.783 7.87101 222.684 8.23401 222.486 8.53101C222.288 8.82801 221.991 9.05901 221.595 9.25701C222.156 9.42201 222.552 9.68601 222.816 10.082C223.08 10.478 223.212 10.94 223.212 11.501C223.212 11.963 223.113 12.326 222.948 12.656C222.783 12.986 222.552 13.25 222.255 13.448C221.958 13.646 221.628 13.811 221.232 13.91C220.869 14.009 220.473 14.075 220.077 14.075H215.754V5.16501H219.945V5.19801ZM219.714 8.79501C220.077 8.79501 220.341 8.69601 220.572 8.53101C220.803 8.36601 220.902 8.10201 220.902 7.70601C220.902 7.50801 220.868 7.34301 220.803 7.21101C220.737 7.07901 220.638 6.98001 220.506 6.91401C220.374 6.84801 220.242 6.78201 220.077 6.74901C219.912 6.71601 219.747 6.71601 219.582 6.71601H217.734V8.79501H219.714ZM219.812 12.59C219.985 12.59 220.133 12.5649 220.3 12.5365L220.374 12.524C220.539 12.491 220.704 12.425 220.836 12.326C220.968 12.227 221.067 12.128 221.166 11.963C221.265 11.798 221.298 11.633 221.298 11.402C221.298 10.94 221.166 10.61 220.902 10.412C220.638 10.214 220.308 10.115 219.879 10.115H217.734V12.557H219.812V12.59ZM75.8335 23.513C77.4505 24.371 78.7375 25.592 79.6285 27.143V11.138H83.9845V48.659H79.6285V44.402C78.8035 45.656 77.5825 46.778 76.0315 47.801C74.4805 48.824 72.5005 49.319 70.1575 49.319C67.5835 49.319 65.3725 48.725 63.4255 47.537C61.4785 46.349 59.9935 44.732 58.9375 42.686C57.8815 40.64 57.3535 38.33 57.3535 35.723C57.3535 33.116 57.8815 30.806 58.9705 28.76C60.0595 26.747 61.5445 25.13 63.4585 23.975C65.3725 22.82 67.6165 22.226 70.2235 22.226C72.3355 22.226 74.2165 22.655 75.8335 23.513ZM75.2395 44.237C76.5925 43.445 77.6155 42.29 78.3745 40.838C79.1005 39.386 79.4965 37.67 79.4965 35.723C79.4965 33.776 79.1335 32.06 78.3745 30.608C77.6155 29.156 76.5925 28.034 75.2395 27.209C73.8865 26.384 72.3355 25.988 70.6195 25.988C68.9035 25.988 67.4185 26.384 66.0655 27.209C64.7125 28.001 63.6895 29.156 62.9305 30.608C62.1715 32.06 61.8085 33.776 61.8085 35.723C61.8085 37.67 62.1715 39.386 62.9305 40.838C63.6895 42.29 64.7125 43.412 66.0655 44.237C67.3855 45.062 68.8705 45.458 70.6195 45.458C72.3685 45.458 73.8865 45.062 75.2395 44.237ZM107.25 23.381C105.633 22.589 103.785 22.193 101.706 22.193C99.1645 22.193 96.9535 22.754 95.0065 23.876C93.0595 24.998 91.5745 26.582 90.5185 28.628C89.4295 30.674 88.9015 33.017 88.9015 35.723C88.9015 38.429 89.4625 40.838 90.5515 42.851C91.6405 44.864 93.1585 46.448 95.0395 47.57C96.9535 48.692 99.1315 49.253 101.607 49.253C104.676 49.253 107.184 48.461 109.131 46.877C111.078 45.293 112.398 43.313 113.091 40.937H108.768C108.207 42.356 107.316 43.478 106.128 44.303C104.907 45.128 103.389 45.557 101.607 45.557C100.221 45.557 98.9005 45.227 97.6795 44.567C96.4585 43.907 95.4355 42.917 94.6105 41.63C93.7855 40.343 93.3235 38.693 93.2245 36.713H113.817C113.817 36.5645 113.825 36.3912 113.833 36.218C113.841 36.0447 113.85 35.8715 113.85 35.723C113.817 30.047 111.507 25.46 107.25 23.381ZM93.2575 33.314C93.4885 30.872 94.4125 29.024 96.0295 27.77C97.6465 26.516 99.4945 25.856 101.574 25.856C103.752 25.856 105.6 26.516 107.085 27.836C108.57 29.156 109.362 30.971 109.494 33.314H93.2575ZM139.656 22.82H135.267V48.659H139.656V22.82ZM124.047 18.431C124.047 17.144 124.311 16.22 124.872 15.692C125.433 15.164 126.357 14.867 127.677 14.867H135.234V11.138H126.984C124.575 11.138 122.76 11.699 121.506 12.854C120.252 14.009 119.625 15.824 119.625 18.332V22.82H115.731V26.516H119.625V48.659H124.014V26.516H129.855V22.82H124.014C124.047 22.82 124.047 18.431 124.047 18.431ZM153.779 27.011C152.03 28.001 150.743 29.75 150.083 31.664C149.819 32.39 149.655 33.149 149.556 33.941C149.258 36.185 149.423 38.66 150.413 40.739C150.446 40.805 150.488 40.8793 150.529 40.9535C150.57 41.0278 150.611 41.102 150.645 41.168C151.469 42.62 152.493 43.709 153.779 44.435C155.066 45.161 156.452 45.524 157.904 45.524C159.719 45.524 161.303 45.095 162.656 44.204C163.844 43.412 164.67 42.323 165.065 40.97H169.553C168.959 43.412 167.673 45.392 165.692 46.877C163.614 48.461 161.04 49.253 157.971 49.253C155.495 49.253 153.285 48.692 151.338 47.57C149.391 46.415 147.84 44.864 146.717 42.818C145.694 40.937 145.166 38.825 145.067 36.68C144.936 34.337 145.232 31.961 146.123 29.816C146.288 29.42 146.486 28.991 146.717 28.595C147.84 26.549 149.357 24.965 151.338 23.843C153.285 22.721 155.495 22.16 157.971 22.16C161.007 22.16 163.58 22.985 165.692 24.569C167.64 26.054 168.926 28.034 169.553 30.476H165.065C164.67 29.123 163.877 28.034 162.656 27.242C161.27 26.351 159.719 25.922 157.904 25.922C156.419 25.922 155.066 26.285 153.779 27.011ZM187.836 22.193C185.955 22.193 184.239 22.622 182.622 23.513C181.005 24.404 179.784 25.658 178.926 27.242V11.138H174.537V48.626H178.926V35.261C178.926 32.258 179.685 29.981 181.203 28.364C182.721 26.747 184.635 25.955 186.879 25.955C191.235 25.955 193.38 28.628 193.38 34.04V48.659H197.702V33.545C197.702 29.684 196.812 26.846 194.997 24.965C193.215 23.117 190.806 22.193 187.836 22.193ZM230.604 22.82H234.96V48.659H230.604V22.82ZM213.872 22.193C212.024 22.193 210.309 22.523 208.658 23.216C207.008 23.876 205.656 24.866 204.567 26.153C203.544 27.341 202.949 28.793 202.718 30.476H207.24C207.603 29.057 208.328 27.935 209.484 27.143C210.704 26.285 212.189 25.856 213.872 25.856C215.852 25.856 217.437 26.45 218.624 27.605C219.812 28.76 220.407 30.476 220.407 32.72V33.017H213.443C209.979 33.017 207.24 33.743 205.227 35.162C203.214 36.581 202.191 38.627 202.191 41.267C202.191 42.686 202.521 44.006 203.247 45.227C203.94 46.448 204.995 47.405 206.415 48.131C207.833 48.857 209.616 49.22 211.761 49.22C214.137 49.22 216.018 48.692 217.404 47.669C218.691 46.745 219.681 45.623 220.407 44.336V48.593H224.762V32.753C224.762 29.552 223.839 27.011 222.023 25.064C220.208 23.117 217.502 22.193 213.872 22.193ZM220.374 36.515C220.374 38.033 220.044 39.518 219.45 40.871C218.823 42.257 217.899 43.379 216.711 44.27C215.523 45.128 214.071 45.557 212.421 45.557C210.605 45.557 209.219 45.161 208.23 44.336C207.24 43.511 206.745 42.422 206.745 41.069C206.745 39.716 207.272 38.66 208.328 37.769C209.384 36.878 211.199 36.449 213.773 36.449H220.374V36.515ZM253.935 22.193C257.004 22.193 259.446 23.117 261.261 24.965C263.109 26.813 264 29.684 264 33.545V48.659H259.611V34.04C259.611 28.628 257.4 25.955 252.945 25.955C250.734 25.955 248.886 26.747 247.401 28.364C245.916 29.981 245.19 32.258 245.19 35.261V48.659H240.801V22.82H245.19V27.176C246.015 25.691 247.137 24.503 248.622 23.612C250.173 22.655 251.955 22.193 253.935 22.193ZM230.571 5.39601C230.241 5.26401 229.878 5.19801 229.482 5.19801V5.16501H224.73V14.075H226.677V10.61H228.624C229.118 10.61 229.449 10.709 229.68 10.94C229.911 11.171 230.042 11.501 230.109 11.963C230.142 12.326 230.174 12.689 230.208 13.085C230.24 13.481 230.307 13.811 230.406 14.108H232.352C232.253 13.976 232.188 13.811 232.155 13.646C232.122 13.4815 232.089 13.2841 232.056 13.0867L232.056 13.085C232.056 12.887 232.055 12.689 232.022 12.491C231.99 12.293 231.99 12.128 231.99 11.996C231.957 11.798 231.924 11.567 231.891 11.336C231.825 11.105 231.759 10.907 231.66 10.709C231.561 10.511 231.428 10.346 231.264 10.214C231.098 10.082 230.901 9.98301 230.67 9.91701V9.88401C231.165 9.68601 231.527 9.42201 231.758 9.02601C231.99 8.66301 232.089 8.20101 232.089 7.67301C232.089 7.34301 232.055 7.01301 231.924 6.71601C231.792 6.41901 231.627 6.15501 231.396 5.92401C231.165 5.69301 230.901 5.52801 230.571 5.39601ZM229.812 8.92701C229.581 9.12501 229.251 9.22401 228.788 9.22401H226.644V6.71601H228.788C229.251 6.71601 229.581 6.81501 229.812 7.01301C230.043 7.21101 230.142 7.54101 230.142 7.97001C230.142 8.39901 230.043 8.72901 229.812 8.92701ZM235.752 5.19801V14.108H233.805V5.19801H235.752ZM243.078 5.46201C242.583 5.29701 242.022 5.19801 241.461 5.19801H237.633V14.108H241.461C242.154 14.108 242.748 14.009 243.243 13.778C243.738 13.547 244.167 13.217 244.497 12.821C244.827 12.425 245.091 11.963 245.256 11.402C245.421 10.874 245.52 10.28 245.52 9.62001C245.52 8.86101 245.421 8.23401 245.223 7.67301C245.025 7.11201 244.728 6.65001 244.365 6.28701C244.002 5.92401 243.573 5.66001 243.078 5.46201ZM242.154 12.326C241.89 12.425 241.626 12.458 241.329 12.458H239.58V6.84801H240.999C241.494 6.84801 241.89 6.91401 242.22 7.04601C242.55 7.17801 242.814 7.37601 243.012 7.64001C243.21 7.90401 243.342 8.20101 243.441 8.56401C243.54 8.92701 243.573 9.32301 243.573 9.78501C243.573 10.28 243.507 10.709 243.375 11.039C243.243 11.369 243.078 11.666 242.88 11.864C242.649 12.095 242.418 12.227 242.154 12.326ZM263.241 6.84801V5.19801H256.575V14.108H263.34V12.458H258.555V10.28H262.878V8.76201H258.555V6.84801H263.241Z" fill="black"/>
</svg>
