<svg width="100" height="52" viewBox="0 0 100 52" fill="none" xmlns="http://www.w3.org/2000/svg">
<path d="M0.0078125 0.117839H6.32652C6.70017 0.117839 7.10256 0.122368 7.53369 0.129918C7.96482 0.138978 8.39141 0.163137 8.81498 0.202396C9.23703 0.243164 9.63186 0.303562 9.99794 0.3851C10.364 0.466637 10.6772 0.588942 10.9374 0.750506C11.5061 1.09175 11.9902 1.56286 12.3896 2.16231C12.7889 2.76478 12.9886 3.50314 12.9886 4.38042C12.9886 5.30602 12.7647 6.10629 12.317 6.77972C11.8692 7.45316 11.2308 7.95295 10.4018 8.27759V8.32591C11.4759 8.55391 12.2958 9.04011 12.8661 9.78754C13.4349 10.535 13.7193 11.444 13.7193 12.5145C13.7193 13.1472 13.6058 13.7647 13.3774 14.3657C13.149 14.9667 12.8116 15.4982 12.3654 15.9617C11.9176 16.4253 11.3655 16.7982 10.7059 17.0821C10.0463 17.366 9.28695 17.5079 8.42469 17.5079H0.0078125V0.117839ZM6.96187 7.59509C8.27947 7.59509 9.22644 7.36407 9.80431 6.90052C10.3822 6.43697 10.6711 5.7439 10.6711 4.8183C10.6711 4.20073 10.5728 3.71453 10.3776 3.35667C10.1825 3.00033 9.91323 2.72401 9.57286 2.52922C9.23098 2.33444 8.83616 2.20912 8.3899 2.15174C7.94213 2.09587 7.46713 2.06718 6.96187 2.06718H2.32684V7.59509H6.96187ZM8.13273 15.5586C9.15837 15.5586 9.95861 15.2822 10.5365 14.7311C11.1143 14.18 11.4033 13.4159 11.4033 12.442C11.4033 11.8743 11.2974 11.4032 11.0856 11.0287C10.8738 10.6558 10.594 10.3583 10.2445 10.1394C9.89507 9.92041 9.49117 9.7664 9.03735 9.67731C8.58202 9.58822 8.11004 9.54293 7.62294 9.54293H2.32835V15.5586H8.13273Z" fill="black"/>
<path d="M15.8965 2.65153V0.117839H17.9704V2.65153H15.8965ZM17.972 4.91494V17.5064H15.898V4.91494H17.972Z" fill="black"/>
<path d="M61.019 17.5064V15.8017H60.9706C60.6287 16.4993 60.0917 17.0036 59.3595 17.3116C58.6274 17.6196 57.8226 17.7736 56.9437 17.7736C55.968 17.7736 55.1178 17.5955 54.3932 17.2376C53.6686 16.8798 53.068 16.4011 52.587 15.8001C52.1075 15.1992 51.7459 14.5016 51.5009 13.7059C51.2573 12.9101 51.1348 12.066 51.1348 11.1737C51.1348 10.2813 51.2528 9.43723 51.4887 8.63998C51.7247 7.84424 52.0817 7.15117 52.5628 6.55776C53.0423 5.96586 53.6444 5.49476 54.369 5.14596C55.0921 4.79716 55.9347 4.62201 56.8938 4.62201C57.219 4.62201 57.5684 4.65523 57.9436 4.72016C58.3173 4.78508 58.6909 4.89531 59.0661 5.04932C59.4397 5.20334 59.7937 5.40718 60.128 5.65783C60.4608 5.91 60.7422 6.22255 60.9691 6.59551H61.0175V0.117839H63.0915V17.5064H61.019ZM53.5642 13.0385C53.7185 13.5986 53.9545 14.0984 54.2722 14.5363C54.5899 14.9742 54.9953 15.3245 55.4915 15.5827C55.9876 15.8424 56.5685 15.9723 57.2356 15.9723C57.9345 15.9723 58.529 15.8349 59.0161 15.5586C59.5047 15.2822 59.9026 14.9214 60.2112 14.4744C60.5198 14.0275 60.7437 13.5201 60.8829 12.9524C61.0205 12.3846 61.0901 11.8078 61.0901 11.2235C61.0901 10.6059 61.0175 10.0095 60.8708 9.43421C60.724 8.85741 60.4926 8.35007 60.1749 7.91218C59.8587 7.4743 59.4473 7.12097 58.9435 6.8522C58.4383 6.58494 57.8286 6.45056 57.1131 6.45056C56.4142 6.45056 55.8197 6.58947 55.3311 6.86428C54.8425 7.1406 54.4522 7.50601 54.1602 7.9605C53.8668 8.415 53.6565 8.93442 53.5264 9.51877C53.3963 10.1031 53.3313 10.7041 53.3313 11.3216C53.3328 11.906 53.4099 12.4783 53.5642 13.0385Z" fill="black"/>
<path d="M77.4462 17.4583C77.0877 17.6697 76.5931 17.7754 75.9577 17.7754C75.4207 17.7754 74.9941 17.6259 74.6764 17.3254C74.3587 17.0249 74.2014 16.5342 74.2014 15.8517C73.6326 16.5342 72.9685 17.0249 72.2122 17.3254C71.4558 17.6259 70.6389 17.7754 69.76 17.7754C69.1912 17.7754 68.6497 17.7104 68.1384 17.5806C67.6256 17.4507 67.1823 17.2484 66.8087 16.9721C66.435 16.6958 66.137 16.3349 65.9177 15.8879C65.6983 15.441 65.5879 14.9019 65.5879 14.2693C65.5879 13.5551 65.7104 12.9707 65.954 12.5162C66.1975 12.0617 66.5197 11.6918 66.9176 11.4079C67.3154 11.1241 67.7708 10.9081 68.2836 10.7632C68.7964 10.6167 69.3213 10.4959 69.8568 10.3978C70.4256 10.2845 70.9672 10.1985 71.48 10.1426C71.9928 10.0852 72.4436 10.0052 72.8339 9.89948C73.2242 9.79379 73.5328 9.63977 73.7612 9.43744C73.9881 9.23511 74.1031 8.93765 74.1031 8.54808C74.1031 8.09359 74.0169 7.72818 73.8474 7.45186C73.6765 7.17554 73.4572 6.96415 73.1879 6.81919C72.9201 6.67273 72.6191 6.57609 72.2848 6.52626C71.9505 6.47795 71.6222 6.45379 71.297 6.45379C70.4181 6.45379 69.6874 6.61988 69.102 6.95358C68.5166 7.28728 68.1989 7.91541 68.1505 8.84101H66.0765C66.1083 8.06188 66.2717 7.40354 66.5651 6.86902C66.8586 6.33299 67.2489 5.89964 67.736 5.56594C68.2246 5.23375 68.7813 4.99367 69.4076 4.8472C70.0338 4.70074 70.704 4.62826 71.421 4.62826C71.9898 4.62826 72.5556 4.66903 73.1168 4.75057C73.678 4.8321 74.1863 4.9982 74.6416 5.24885C75.097 5.4995 75.4631 5.85283 75.7399 6.30581C76.0167 6.75879 76.1544 7.35069 76.1544 8.08V14.5441C76.1544 15.0303 76.1831 15.3866 76.2406 15.6131C76.2981 15.8396 76.4887 15.9529 76.8139 15.9529C76.9924 15.9529 77.2042 15.9212 77.4478 15.8547V17.4583H77.4462ZM74.0789 11.0048C73.8187 11.1995 73.4768 11.34 73.0548 11.4291C72.6312 11.5181 72.188 11.5906 71.7251 11.6465C71.2622 11.7039 70.7932 11.7673 70.3228 11.8413C69.8508 11.9138 69.4272 12.0315 69.0536 12.1931C68.6799 12.3547 68.3744 12.5842 68.1384 12.8831C67.9024 13.1821 67.7844 13.5898 67.7844 14.1077C67.7844 14.4474 67.854 14.7343 67.9916 14.9684C68.1293 15.2024 68.3093 15.3927 68.5287 15.5376C68.748 15.6826 69.0052 15.7883 69.2971 15.8532C69.5906 15.9181 69.8992 15.9498 70.2244 15.9498C70.9082 15.9498 71.4936 15.8577 71.9807 15.672C72.4693 15.4863 72.8672 15.2522 73.1758 14.9699C73.4844 14.6875 73.7128 14.3795 73.8596 14.0488C74.0063 13.7181 74.0789 13.4071 74.0789 13.1157V11.0048Z" fill="black"/>
<path d="M22.8425 4.91564V7.57013H22.8909C23.3946 6.54639 24.0134 5.79141 24.7455 5.30521C25.4777 4.8175 26.405 4.59101 27.5274 4.62272V6.81516C26.6985 6.81516 25.9905 6.9284 25.4051 7.15641C24.8196 7.38441 24.3477 7.7166 23.9907 8.15448C23.6321 8.59237 23.372 9.12538 23.2101 9.74898C23.0467 10.3741 22.9665 11.0928 22.9665 11.9037V17.5056H20.8926V4.91564H22.8425Z" fill="black"/>
<path d="M33.6313 0.866863H31.3047V15.1827H33.6313V0.866863Z" fill="black"/>
<path d="M35.9579 15.182H33.6309V17.5062H35.9579V15.182Z" fill="black"/>
<path d="M35.9569 7.02726H29.0996V4.70345L35.9569 4.70497V7.02726Z" fill="black"/>
<path d="M40.2615 0V6.6483H40.3099C40.4717 6.25873 40.7002 5.92956 40.9936 5.6623C41.2871 5.39353 41.6154 5.17459 41.9814 5.00396C42.3475 4.83334 42.7303 4.70801 43.1281 4.62648C43.526 4.54494 43.9132 4.50417 44.2869 4.50417C45.1158 4.50417 45.8072 4.61742 46.3608 4.84542C46.913 5.07342 47.3607 5.39051 47.7026 5.79518C48.0445 6.20135 48.2835 6.68453 48.4227 7.24472C48.5619 7.80491 48.6299 8.4255 48.6299 9.108V17.3885H46.556V8.8649C46.556 8.08576 46.3275 7.4682 45.8737 7.0137C45.4184 6.55921 44.7921 6.33121 43.9949 6.33121C43.3611 6.33121 42.8119 6.42935 42.3475 6.62414C41.8846 6.81892 41.4974 7.09524 41.1888 7.4531C40.8802 7.81096 40.6472 8.2277 40.4929 8.70786C40.3386 9.18652 40.2615 9.71047 40.2615 10.2782V17.3901H38.1875V0H40.2615Z" fill="black"/>
<path d="M81.1879 5.0075H78.8613V13.1642H81.1879V5.0075Z" fill="black"/>
<path d="M90.4985 5.0075H88.1719V13.1642H90.4985V5.0075Z" fill="black"/>
<path d="M83.5165 13.1644H81.1895V15.4872H83.5165V13.1644Z" fill="black"/>
<path d="M88.1708 13.1644H85.8438V15.4872H88.1708V13.1644Z" fill="black"/>
<path d="M85.8427 15.4886H83.5156V17.8114H85.8427V15.4886Z" fill="black"/>
<path d="M85.8427 17.8102H83.5156V20.133H85.8427V17.8102Z" fill="black"/>
<path d="M83.5165 20.1338H81.1895V22.4566H83.5165V20.1338Z" fill="black"/>
<path d="M25.2502 39.1818C24.3062 39.896 23.1187 40.2539 21.6877 40.2539C20.6787 40.2539 19.8043 40.0908 19.0646 39.7662C18.3249 39.4415 17.7016 38.9871 17.1979 38.4027C16.6941 37.8184 16.3159 37.1208 16.0633 36.3084C15.8107 35.4961 15.6685 34.6127 15.6367 33.6539C15.6367 32.6966 15.7835 31.8193 16.0754 31.0236C16.3689 30.2279 16.7788 29.5378 17.3083 28.9535C17.8362 28.3691 18.4625 27.9146 19.1871 27.59C19.9102 27.2653 20.7044 27.1023 21.5667 27.1023C22.6891 27.1023 23.6194 27.3333 24.3607 27.7968C25.1004 28.2604 25.6934 28.8478 26.1412 29.562C26.5889 30.2762 26.8975 31.0568 27.0685 31.9009C27.2394 32.7449 27.3075 33.5482 27.2757 34.3123H17.8332C17.8166 34.8649 17.8816 35.3873 18.0284 35.8826C18.1751 36.3779 18.4111 36.8173 18.7363 37.1978C19.0616 37.5798 19.476 37.8833 19.9813 38.1113C20.485 38.3393 21.0796 38.4525 21.7618 38.4525C22.6407 38.4525 23.3608 38.2502 23.9205 37.844C24.4817 37.4379 24.8508 36.8203 25.0308 35.9928H27.0806C26.8022 37.4046 26.1926 38.4676 25.2502 39.1818ZM24.7495 31.0961C24.5619 30.6582 24.3108 30.2807 23.9931 29.9636C23.6754 29.6465 23.3018 29.3959 22.8706 29.2086C22.4395 29.0229 21.963 28.9293 21.4426 28.9293C20.9056 28.9293 20.4215 29.0229 19.9904 29.2086C19.5593 29.3959 19.1886 29.6511 18.88 29.9757C18.5714 30.3003 18.3264 30.6778 18.1479 31.1082C17.9678 31.5385 17.8635 31.9975 17.8302 32.4837H25.0762C25.046 31.9975 24.9355 31.5355 24.7495 31.0961Z" fill="black"/>
<path d="M31.2128 37.1738C31.408 37.4909 31.6636 37.7431 31.9813 37.9288C32.299 38.116 32.656 38.2489 33.0553 38.3305C33.4532 38.412 33.8647 38.4528 34.2882 38.4528C34.6135 38.4528 34.9553 38.4286 35.3124 38.3803C35.6694 38.332 35.9991 38.2429 36.3002 38.113C36.6012 37.9832 36.8493 37.7929 37.0444 37.5408C37.2396 37.2886 37.3379 36.9685 37.3379 36.5789C37.3379 36.0429 37.1337 35.6367 36.7283 35.3619C36.3213 35.0856 35.8131 34.8621 35.2034 34.6915C34.5938 34.5209 33.9297 34.3669 33.2142 34.2294C32.4987 34.092 31.8361 33.8973 31.2264 33.6451C30.6168 33.3929 30.107 33.0411 29.7016 32.5851C29.2947 32.1306 29.092 31.498 29.092 30.6856C29.092 30.0529 29.2342 29.5094 29.5186 29.0534C29.803 28.5989 30.169 28.2289 30.6168 27.945C31.0646 27.6612 31.5683 27.4498 32.1296 27.3124C32.6908 27.175 33.2475 27.1055 33.8011 27.1055C34.5167 27.1055 35.1762 27.1659 35.7783 27.2882C36.3803 27.4105 36.9128 27.6219 37.3757 27.9209C37.8401 28.2214 38.2092 28.6275 38.4861 29.1379C38.7629 29.6498 38.9248 30.287 38.9747 31.0495H36.9007C36.8674 30.6433 36.7616 30.3066 36.5831 30.0393C36.403 29.7721 36.1761 29.5562 35.8993 29.3946C35.6225 29.233 35.3169 29.1153 34.9841 29.0413C34.6498 28.9688 34.3139 28.931 33.9721 28.931C33.6635 28.931 33.3503 28.9552 33.0327 29.0035C32.715 29.0518 32.426 29.1379 32.1659 29.2587C31.9057 29.381 31.6939 29.5426 31.532 29.7464C31.3686 29.9487 31.2885 30.213 31.2885 30.5376C31.2885 30.8955 31.414 31.1914 31.6667 31.427C31.9193 31.6625 32.24 31.8573 32.6303 32.0113C33.0206 32.1653 33.4592 32.2952 33.9479 32.4009C34.4365 32.5066 34.9236 32.6168 35.4122 32.7301C35.9326 32.8433 36.4409 32.9822 36.937 33.1438C37.4332 33.3069 37.8719 33.5213 38.2546 33.7885C38.6358 34.0558 38.946 34.394 39.1819 34.7987C39.4179 35.2049 39.5359 35.7077 39.5359 36.3086C39.5359 37.0727 39.3771 37.7053 39.0609 38.2082C38.7432 38.711 38.3288 39.1171 37.8159 39.4252C37.3031 39.7332 36.7268 39.9491 36.0839 40.0699C35.4409 40.1922 34.8026 40.2526 34.1687 40.2526C33.4698 40.2526 32.8027 40.1801 32.1674 40.0337C31.5335 39.8872 30.9708 39.6486 30.4837 39.3149C29.9951 38.9828 29.6048 38.5434 29.3128 37.9998C29.0194 37.4562 28.8575 36.7933 28.8242 36.0142H30.8982C30.9118 36.4717 31.0177 36.8568 31.2128 37.1738Z" fill="black"/>
<path d="M66.1963 39.9368C65.8377 40.1482 65.3431 40.2539 64.7077 40.2539C64.1707 40.2539 63.7441 40.1044 63.4264 39.804C63.1088 39.5035 62.9514 39.0127 62.9514 38.3303C62.3826 39.0127 61.7185 39.5035 60.9622 39.804C60.2058 40.1044 59.3889 40.2539 58.51 40.2539C57.9412 40.2539 57.3997 40.189 56.8884 40.0591C56.3756 39.9293 55.9323 39.727 55.5587 39.4506C55.185 39.1743 54.887 38.8134 54.6677 38.3665C54.4483 37.9195 54.3379 37.3805 54.3379 36.7478C54.3379 36.0336 54.4604 35.4493 54.704 34.9948C54.9475 34.5403 55.2697 34.1703 55.6676 33.8865C56.0654 33.6026 56.5208 33.3867 57.0336 33.2417C57.5464 33.0953 58.0713 32.9745 58.6068 32.8763C59.1756 32.7631 59.7172 32.677 60.23 32.6211C60.7428 32.5638 61.1936 32.4837 61.5839 32.378C61.9742 32.2723 62.2828 32.1183 62.5112 31.916C62.7381 31.7137 62.8531 31.4162 62.8531 31.0266C62.8531 30.5721 62.7669 30.2067 62.5974 29.9304C62.4265 29.6541 62.2072 29.4427 61.9379 29.2978C61.6701 29.1513 61.3691 29.0546 61.0348 29.0048C60.7005 28.9565 60.3722 28.9323 60.047 28.9323C59.1681 28.9323 58.4374 29.0984 57.852 29.4321C57.2666 29.7658 56.9489 30.394 56.9005 31.3196H54.8265C54.8583 30.5404 55.0216 29.8821 55.3151 29.3476C55.6086 28.8115 55.9989 28.3782 56.486 28.0445C56.9746 27.7123 57.5313 27.4722 58.1576 27.3258C58.7838 27.1793 59.454 27.1068 60.171 27.1068C60.7398 27.1068 61.3056 27.1476 61.8668 27.2291C62.428 27.3107 62.9363 27.4768 63.3916 27.7274C63.847 27.9781 64.2131 28.3314 64.4899 28.7844C64.7667 29.2374 64.9044 29.8293 64.9044 30.5586V37.0226C64.9044 37.5088 64.9331 37.8652 64.9906 38.0917C65.0481 38.3182 65.2387 38.4314 65.5639 38.4314C65.7424 38.4314 65.9542 38.3997 66.1978 38.3333V39.9368H66.1963ZM62.8289 33.4833C62.5687 33.6781 62.2268 33.8185 61.8048 33.9076C61.3812 33.9967 60.938 34.0692 60.4751 34.1251C60.0122 34.1824 59.5432 34.2458 59.0728 34.3198C58.6008 34.3923 58.1772 34.5101 57.8036 34.6716C57.4299 34.8332 57.1244 35.0627 56.8884 35.3617C56.6524 35.6607 56.5344 36.0683 56.5344 36.5863C56.5344 36.926 56.604 37.2129 56.7416 37.4469C56.8793 37.681 57.0593 37.8712 57.2787 38.0162C57.498 38.1611 57.7552 38.2668 58.0471 38.3318C58.3406 38.3967 58.6492 38.4284 58.9744 38.4284C59.6582 38.4284 60.2436 38.3363 60.7307 38.1506C61.2193 37.9648 61.6172 37.7308 61.9258 37.4484C62.2344 37.1661 62.4628 36.8581 62.6095 36.5274C62.7563 36.1967 62.8289 35.8856 62.8289 35.5942V33.4833Z" fill="black"/>
<path d="M83.9073 29.585C83.3869 29.1471 82.688 28.9267 81.8091 28.9267C81.0603 28.9267 80.434 29.0656 79.9303 29.3404C79.4266 29.6167 79.0227 29.9821 78.7231 30.4366C78.4221 30.8911 78.2073 31.4151 78.0772 32.007C77.9471 32.6004 77.882 33.2119 77.882 33.8461C77.882 34.4305 77.9516 34.9997 78.0893 35.5508C78.227 36.1035 78.4433 36.5942 78.7352 37.0245C79.0287 37.4549 79.4099 37.7991 79.8819 38.0589C80.3539 38.3186 80.9151 38.4484 81.5656 38.4484C82.5897 38.4484 83.3914 38.1812 83.9693 37.6451C84.5472 37.1091 84.8996 36.3541 85.0313 35.3802H87.1536C86.9252 36.9385 86.3443 38.1404 85.4094 38.9845C84.4746 39.8285 83.2008 40.2513 81.5913 40.2513C80.6307 40.2513 79.7821 40.0973 79.0408 39.7893C78.3011 39.4812 77.6824 39.0418 77.1862 38.4741C76.69 37.9063 76.3164 37.2284 76.0637 36.4402C75.8111 35.652 75.6855 34.7883 75.6855 33.8461C75.6855 32.9039 75.8081 32.0236 76.0516 31.2037C76.2952 30.3838 76.6658 29.6696 77.162 29.0611C77.6582 28.4526 78.2799 27.9739 79.0287 27.6236C79.7775 27.2748 80.6473 27.0997 81.6397 27.0997C82.3552 27.0997 83.0269 27.1857 83.6531 27.3548C84.2794 27.5255 84.8316 27.7897 85.3126 28.1461C85.7922 28.5039 86.187 28.9539 86.4956 29.4975C86.8042 30.0425 86.9993 30.6873 87.081 31.4332H84.9329C84.7695 30.642 84.4277 30.0244 83.9073 29.585Z" fill="black"/>
<path d="M70.2348 27.3168H67.9082V40.0396H70.2348V27.3168Z" fill="black"/>
<path d="M72.5634 29.641H70.2363V31.9638H72.5634V29.641Z" fill="black"/>
<path d="M75.4967 27.3168H72.5645V29.6396H75.4967V27.3168Z" fill="black"/>
<path d="M2.3223 24.9057H0.0078125V39.984H2.3223V24.9057Z" fill="black"/>
<path d="M13.4961 24.9057H11.1816V30.6087H13.4961V24.9057Z" fill="black"/>
<path d="M11.1824 22.5958H2.32227V24.906H11.1824V22.5958Z" fill="black"/>
<path d="M11.1824 30.6082H2.32227V32.9199H11.1824V30.6082Z" fill="black"/>
<path d="M13.4961 39.9857H11.1816V32.9207L13.4961 32.9222V39.9857Z" fill="black"/>
<path d="M91.7192 22.4551H89.3926V40.0792H91.7192V22.4551Z" fill="black"/>
<path d="M99.9985 30.002H97.6719V40.0794H99.9985V30.002Z" fill="black"/>
<path d="M94.0477 30.002H91.7207V32.3248H94.0477V30.002Z" fill="black"/>
<path d="M97.7092 27.6791H94.0469V30.0014H97.7092V27.6791Z" fill="black"/>
<path d="M50.6642 39.1818C49.7203 39.896 48.5328 40.2539 47.1017 40.2539C46.0927 40.2539 45.2184 40.0908 44.4786 39.7662C43.7389 39.4415 43.1157 38.9871 42.6119 38.4027C42.1082 37.8184 41.73 37.1208 41.4774 36.3084C41.2247 35.4961 41.0825 34.6127 41.0508 33.6539C41.0508 32.6966 41.1975 31.8193 41.4895 31.0236C41.7829 30.2279 42.1929 29.5378 42.7224 28.9535C43.2503 28.3691 43.8766 27.9146 44.6012 27.59C45.3243 27.2653 46.1185 27.1023 46.9807 27.1023C48.1032 27.1023 49.0335 27.3333 49.7747 27.7968C50.5145 28.2604 51.1075 28.8478 51.5552 29.562C52.003 30.2762 52.3116 31.0568 52.4825 31.9009C52.6535 32.7449 52.7216 33.5482 52.6898 34.3123H43.2473C43.2306 34.8649 43.2957 35.3873 43.4424 35.8826C43.5892 36.3779 43.8251 36.8173 44.1504 37.1978C44.4756 37.5798 44.8901 37.8833 45.3954 38.1113C45.8991 38.3393 46.4936 38.4525 47.1759 38.4525C48.0548 38.4525 48.7748 38.2502 49.3345 37.844C49.8958 37.4379 50.2649 36.8203 50.4449 35.9928H52.4946C52.2178 37.4046 51.6082 38.4676 50.6642 39.1818ZM50.165 31.0961C49.9775 30.6582 49.7263 30.2807 49.4087 29.9636C49.091 29.6465 48.7173 29.3959 48.2862 29.2086C47.8551 29.0229 47.3786 28.9293 46.8597 28.9293C46.3227 28.9293 45.8386 29.0229 45.4075 29.2086C44.9763 29.3959 44.6057 29.6511 44.2971 29.9757C43.9885 30.3003 43.7435 30.6778 43.565 31.1082C43.3849 31.5385 43.2806 31.9975 43.2473 32.4837H50.4933C50.4615 31.9975 50.3511 31.5355 50.165 31.0961Z" fill="black"/>
<path d="M2.7668 45.9371C3.04666 45.9371 3.30231 45.9613 3.53224 46.0111C3.76218 46.0609 3.96035 46.1409 4.12524 46.2542C4.29013 46.3659 4.4172 46.5154 4.50796 46.7026C4.59873 46.8884 4.64411 47.1194 4.64411 47.3927C4.64411 47.6886 4.57755 47.9348 4.44291 48.1326C4.30828 48.3304 4.11011 48.4919 3.84538 48.6173C4.20844 48.7214 4.47771 48.9041 4.65621 49.1639C4.83471 49.4236 4.92396 49.7376 4.92396 50.1046C4.92396 50.4005 4.86648 50.6572 4.75151 50.8731C4.63654 51.089 4.48073 51.2657 4.28559 51.4031C4.09045 51.5405 3.86807 51.6417 3.61847 51.7066C3.36887 51.773 3.1117 51.8048 2.84849 51.8048H0V45.9356H2.7668V45.9371ZM2.60191 48.3138C2.83185 48.3138 3.02245 48.2594 3.1707 48.1492C3.31895 48.0389 3.39307 47.8608 3.39307 47.6147C3.39307 47.4772 3.36887 47.3655 3.31895 47.2779C3.26903 47.1904 3.20398 47.1224 3.12078 47.0726C3.03909 47.0228 2.94379 46.9895 2.83639 46.9699C2.72898 46.9503 2.61855 46.9412 2.50358 46.9412H1.29339V48.3138H2.60191ZM2.67603 50.8037C2.80159 50.8037 2.92261 50.7916 3.03909 50.7659C3.15557 50.7402 3.25541 50.6995 3.34315 50.6421C3.43089 50.5847 3.50048 50.5062 3.55342 50.4081C3.60486 50.3099 3.63209 50.1831 3.63209 50.0306C3.63209 49.7286 3.54737 49.5142 3.37643 49.3858C3.20549 49.2575 2.98161 49.1925 2.70175 49.1925H1.29339V50.8037H2.67603Z" fill="black"/>
<path d="M5.50977 45.9375H6.95897L8.33405 48.2553L9.70156 45.9375H11.1432L8.96184 49.5539V51.8067H7.66844V49.5222L5.50977 45.9375Z" fill="black"/>
<path d="M19.0178 47.5047C18.9406 47.3809 18.8453 47.2737 18.7288 47.1801C18.6139 47.0864 18.4838 47.014 18.337 46.9626C18.1918 46.9113 18.039 46.8841 17.8802 46.8841C17.5898 46.8841 17.3417 46.94 17.139 47.0532C16.9362 47.165 16.7714 47.316 16.6443 47.5047C16.5172 47.6934 16.4265 47.9094 16.369 48.1494C16.3115 48.3895 16.2827 48.6402 16.2827 48.8969C16.2827 49.143 16.3115 49.3831 16.369 49.6156C16.4265 49.8481 16.5187 50.058 16.6443 50.2437C16.7698 50.4295 16.9347 50.579 17.139 50.6922C17.3417 50.8039 17.5898 50.8613 17.8802 50.8613C18.275 50.8613 18.5836 50.7405 18.806 50.4989C19.0284 50.2573 19.1645 49.9402 19.2129 49.5461H20.464C20.4307 49.9131 20.346 50.2453 20.2083 50.5412C20.0706 50.8372 19.8906 51.0893 19.6652 51.2977C19.4398 51.5061 19.1766 51.6646 18.8741 51.7748C18.5715 51.8851 18.2402 51.9394 17.8772 51.9394C17.4264 51.9394 17.0225 51.8609 16.6624 51.7054C16.3024 51.5498 15.9999 51.3339 15.7533 51.0606C15.5067 50.7873 15.3161 50.4642 15.1845 50.0943C15.0529 49.7243 14.9863 49.3257 14.9863 48.8984C14.9863 48.4605 15.0529 48.0528 15.1845 47.6783C15.3161 47.3039 15.5052 46.9762 15.7533 46.6969C15.9999 46.4175 16.3039 46.1986 16.6624 46.0401C17.0225 45.8815 17.4264 45.8015 17.8772 45.8015C18.2009 45.8015 18.5065 45.8483 18.7954 45.9404C19.0828 46.034 19.3415 46.1699 19.5699 46.3481C19.7984 46.5263 19.9859 46.7467 20.1342 47.0094C20.2824 47.2722 20.3762 47.5742 20.414 47.9139H19.163C19.1433 47.7629 19.0934 47.627 19.0178 47.5047Z" fill="black"/>
<path d="M24.6758 45.9375L26.8738 51.8067H25.532L25.0873 50.4991H22.8893L22.4279 51.8067H21.127L23.3507 45.9375H24.6758ZM24.7484 49.5388L24.0072 47.3856H23.9906L23.2251 49.5388H24.7484Z" fill="black"/>
<path d="M29.2938 45.9375V48.3701L31.5917 45.9375H33.2058L30.9079 48.2553L33.4281 51.8067H31.8065L30.0366 49.1688L29.2953 49.9163V51.8067H28.002V45.9375H29.2938Z" fill="black"/>
<path d="M38.9566 45.9375V47.0232H35.8524V48.281H38.7009V49.2836H35.8524V50.7226H39.0231V51.8082H34.5605V45.9391H38.9566V45.9375Z" fill="black"/>
<path d="M46.2806 45.9375C46.6587 45.9375 47.0112 45.9979 47.338 46.1187C47.6647 46.2395 47.9476 46.4207 48.1866 46.6608C48.4256 46.9024 48.6117 47.2029 48.7463 47.5653C48.881 47.9277 48.9475 48.352 48.9475 48.8397C48.9475 49.267 48.8931 49.6611 48.7826 50.0235C48.6722 50.3858 48.5073 50.6969 48.2849 50.9611C48.0626 51.2239 47.7857 51.4307 47.4529 51.5817C47.1201 51.7327 46.7298 51.8082 46.279 51.8082H43.7422V45.9391H46.2806V45.9375ZM46.1898 50.7226C46.3759 50.7226 46.5574 50.6924 46.7329 50.632C46.9083 50.5716 47.0657 50.4719 47.2018 50.3315C47.3395 50.1911 47.4484 50.0099 47.5316 49.7849C47.6133 49.5599 47.6556 49.2866 47.6556 48.9635C47.6556 48.6675 47.6269 48.4003 47.5694 48.1617C47.5119 47.9231 47.4166 47.7193 47.285 47.5487C47.1534 47.3795 46.9794 47.2482 46.7616 47.1591C46.5453 47.0685 46.2775 47.0232 45.9583 47.0232H45.0356V50.7226H46.1898Z" fill="black"/>
<path d="M54.8179 45.9375V47.0232H51.7138V48.281H54.5622V49.2836H51.7138V50.7226H54.8845V51.8082H50.4219V45.9391H54.8179V45.9375Z" fill="black"/>
<path d="M60.5308 45.9375V47.0232H57.6899V48.3791H60.1511V49.3817H57.6899V51.8067H56.3965V45.9375H60.5308Z" fill="black"/>
<path d="M63.1059 45.9375V51.8067H61.8125V45.9375H63.1059Z" fill="black"/>
</svg>
